<?xml version="1.0" encoding="UTF-8" standalone="no"?>
<!DOCTYPE svg PUBLIC "-//W3C//DTD SVG 1.0//EN" "http://www.w3.org/TR/2001/PR-SVG-20010719/DTD/svg10.dtd">
<svg width="52cm" height="51cm" viewBox="38 39 1023 1002" xmlns="http://www.w3.org/2000/svg" xmlns:xlink="http://www.w3.org/1999/xlink">
  <image x="40" y="300" width="180" height="180" xlink:href="file:///Users/nik/Archives/Code/eco-depot/depot-designs/EPA-logo.png"/>
  <image x="880" y="240" width="180" height="248.796" xlink:href="file:///Users/nik/Archives/Code/eco-depot/depot-designs/drum.jpeg"/>
  <image x="280" y="680" width="540" height="359.345" xlink:href="file:///Users/nik/Archives/Code/eco-depot/depot-designs/drum-storage.jpeg"/>
  <image x="400" y="40" width="280" height="280" xlink:href="file:///Users/nik/Archives/Code/eco-depot/depot-designs/hazard-label.jpg"/>
  <g>
    <rect style="fill: #bceeff" x="40" y="500" width="180" height="60"/>
    <rect style="fill: none; fill-opacity:0; stroke-width: 2; stroke: #000000" x="40" y="500" width="180" height="60"/>
    <text font-size="12.8" style="fill: #000000;text-anchor:middle;font-family:sans-serif;font-style:normal;font-weight:700" x="130" y="525.9">
      <tspan x="130" y="525.9">Environmental</tspan>
      <tspan x="130" y="541.9">Protection Agency</tspan>
    </text>
  </g>
  <g>
    <rect style="fill: #ff7b00" x="460" y="340" width="180" height="60"/>
    <rect style="fill: none; fill-opacity:0; stroke-width: 2; stroke: #000000" x="460" y="340" width="180" height="60"/>
    <text font-size="12.8" style="fill: #000000;text-anchor:middle;font-family:sans-serif;font-style:normal;font-weight:700" x="550" y="373.9">
      <tspan x="550" y="373.9">Hazard</tspan>
    </text>
  </g>
  <g>
    <rect style="fill: #d4f3fd" x="880" y="500" width="180" height="60"/>
    <rect style="fill: none; fill-opacity:0; stroke-width: 2; stroke: #000000" x="880" y="500" width="180" height="60"/>
    <text font-size="12.8" style="fill: #000000;text-anchor:middle;font-family:sans-serif;font-style:normal;font-weight:700" x="970" y="533.9">
      <tspan x="970" y="533.9">Drum</tspan>
    </text>
  </g>
  <g>
    <rect style="fill: #1e90ff" x="460" y="600" width="180" height="60"/>
    <rect style="fill: none; fill-opacity:0; stroke-width: 2; stroke: #000000" x="460" y="600" width="180" height="60"/>
    <text font-size="12.8" style="fill: #ffffff;text-anchor:middle;font-family:sans-serif;font-style:normal;font-weight:700" x="550" y="633.9">
      <tspan x="550" y="633.9">Drum Storage</tspan>
    </text>
  </g>
  <g>
    <line style="fill: none; fill-opacity:0; stroke-width: 2; stroke: #000000" x1="240" y1="520" x2="432.024" y2="385.583"/>
    <polygon style="fill: #000000" points="438.168,381.282 432.843,391.113 432.024,385.583 427.109,382.921 "/>
    <polygon style="fill: none; fill-opacity:0; stroke-width: 2; stroke: #000000" points="438.168,381.282 432.843,391.113 432.024,385.583 427.109,382.921 "/>
  </g>
  <g>
    <line style="fill: none; fill-opacity:0; stroke-width: 2; stroke: #000000" x1="240" y1="540" x2="430.96" y2="616.384"/>
    <polygon style="fill: #000000" points="437.924,619.17 426.782,620.098 430.96,616.384 430.496,610.813 "/>
    <polygon style="fill: none; fill-opacity:0; stroke-width: 2; stroke: #000000" points="437.924,619.17 426.782,620.098 430.96,616.384 430.496,610.813 "/>
  </g>
  <g>
    <line style="fill: none; fill-opacity:0; stroke-width: 2; stroke: #000000" x1="660" y1="620" x2="850.96" y2="543.616"/>
    <polygon style="fill: #000000" points="857.924,540.83 850.496,549.187 850.96,543.616 846.782,539.902 "/>
    <polygon style="fill: none; fill-opacity:0; stroke-width: 2; stroke: #000000" points="857.924,540.83 850.496,549.187 850.96,543.616 846.782,539.902 "/>
  </g>
  <g>
    <line style="fill: none; fill-opacity:0; stroke-width: 2; stroke: #000000" x1="860" y1="520" x2="667.976" y2="385.583"/>
    <polygon style="fill: #000000" points="661.832,381.282 672.891,382.921 667.976,385.583 667.157,391.113 "/>
    <polygon style="fill: none; fill-opacity:0; stroke-width: 2; stroke: #000000" points="661.832,381.282 672.891,382.921 667.976,385.583 667.157,391.113 "/>
  </g>
  <text font-size="16.9333" style="fill: #000000;text-anchor:start;font-family:sans-serif;font-style:italic;font-weight:normal" x="240" y="600">
    <tspan x="240" y="600">regulates</tspan>
  </text>
  <text font-size="16.9333" style="fill: #000000;text-anchor:start;font-family:sans-serif;font-style:italic;font-weight:normal" x="240" y="440">
    <tspan x="240" y="440">classifies</tspan>
  </text>
  <text font-size="16.9333" style="fill: #000000;text-anchor:start;font-family:sans-serif;font-style:italic;font-weight:normal" x="720" y="400">
    <tspan x="720" y="400">contains</tspan>
  </text>
  <text font-size="16.9333" style="fill: #000000;text-anchor:start;font-family:sans-serif;font-style:italic;font-weight:normal" x="720" y="620">
    <tspan x="720" y="620">stores</tspan>
  </text>
  <image x="580" y="440" width="140" height="118.674" xlink:href="file:///Users/nik/Archives/Code/eco-depot/depot-designs/safety-first.png"/>
  <g>
    <rect style="fill: #ffc400" x="400" y="480" width="180" height="60"/>
    <rect style="fill: none; fill-opacity:0; stroke-width: 2; stroke: #000000" x="400" y="480" width="180" height="60"/>
    <text font-size="12.8" style="fill: #000000;text-anchor:middle;font-family:sans-serif;font-style:normal;font-weight:700" x="490" y="513.9">
      <tspan x="490" y="513.9">Depot Safety</tspan>
    </text>
  </g>
</svg>
