<?xml version="1.0" encoding="UTF-8" standalone="no"?>
<!DOCTYPE svg PUBLIC "-//W3C//DTD SVG 1.0//EN" "http://www.w3.org/TR/2001/PR-SVG-20010719/DTD/svg10.dtd">
<svg width="34cm" height="25cm" viewBox="20 40 670 494" xmlns="http://www.w3.org/2000/svg" xmlns:xlink="http://www.w3.org/1999/xlink">
  <g>
    <rect style="fill: #ffffff" x="540" y="80" width="149.2" height="18"/>
    <rect style="fill: none; fill-opacity:0; stroke-width: 3; stroke: #000000" x="540" y="80" width="149.2" height="18"/>
    <text font-size="11.2" style="fill: #000000;text-anchor:middle;font-family:sans-serif;font-style:normal;font-weight:700" x="614.6" y="94">Drum</text>
    <rect style="fill: #ffffff" x="540" y="98" width="149.2" height="20"/>
    <rect style="fill: none; fill-opacity:0; stroke-width: 3; stroke: #000000" x="540" y="98" width="149.2" height="20"/>
    <ellipse style="fill: none; fill-opacity:0; stroke-width: 0.2; stroke: #000000" cx="545.5" cy="108" rx="2" ry="2"/>
    <text font-size="12.8" style="fill: #000000;text-anchor:start;font-family:monospace;font-style:normal;font-weight:normal" x="549.5" y="114">id        </text>
    <text font-size="12.8" style="fill: #000000;text-anchor:start;font-family:monospace;font-style:normal;font-weight:normal" x="636.5" y="114">String</text>
  </g>
  <g>
    <rect style="fill: #ffffff" x="80" y="80" width="149.2" height="18"/>
    <rect style="fill: none; fill-opacity:0; stroke-width: 3; stroke: #000000" x="80" y="80" width="149.2" height="18"/>
    <text font-size="11.2" style="fill: #000000;text-anchor:middle;font-family:sans-serif;font-style:normal;font-weight:700" x="154.6" y="94">Hazard Kind</text>
    <rect style="fill: #ffffff" x="80" y="98" width="149.2" height="20"/>
    <rect style="fill: none; fill-opacity:0; stroke-width: 3; stroke: #000000" x="80" y="98" width="149.2" height="20"/>
    <ellipse style="fill: none; fill-opacity:0; stroke-width: 0.2; stroke: #000000" cx="85.5" cy="108" rx="2" ry="2"/>
    <text font-size="12.8" style="fill: #000000;text-anchor:start;font-family:monospace;font-style:normal;font-weight:normal" x="89.5" y="114">type     </text>
    <text font-size="12.8" style="fill: #000000;text-anchor:start;font-family:monospace;font-style:normal;font-weight:normal" x="168.8" y="114">Integer</text>
  </g>
  <g>
    <rect style="fill: #ffffff" x="300" y="40" width="149.2" height="18"/>
    <rect style="fill: none; fill-opacity:0; stroke-width: 2; stroke: #000000" x="300" y="40" width="149.2" height="18"/>
    <text font-size="11.2" style="fill: #000000;text-anchor:middle;font-family:sans-serif;font-style:normal;font-weight:700" x="374.6" y="54">Chemical</text>
    <rect style="fill: #ffffff" x="300" y="58" width="149.2" height="20"/>
    <rect style="fill: none; fill-opacity:0; stroke-width: 2; stroke: #000000" x="300" y="58" width="149.2" height="20"/>
    <ellipse style="fill: none; fill-opacity:0; stroke-width: 0.2; stroke: #000000" cx="305" cy="68" rx="2" ry="2"/>
    <text font-size="12.8" style="fill: #000000;text-anchor:start;font-family:monospace;font-style:normal;font-weight:normal" x="309" y="74">name      </text>
    <text font-size="12.8" style="fill: #000000;text-anchor:start;font-family:monospace;font-style:normal;font-weight:normal" x="396" y="74">String</text>
  </g>
  <g>
    <polyline style="fill: none; fill-opacity:0; stroke-width: 2; stroke: #000000" points="154.6,70.2639 154.6,49 300,49 "/>
    <polygon style="fill: #000000" points="154.6,77.7639 149.6,67.7639 154.6,70.2639 159.6,67.7639 "/>
    <polygon style="fill: none; fill-opacity:0; stroke-width: 2; stroke: #000000" points="154.6,77.7639 149.6,67.7639 154.6,70.2639 159.6,67.7639 "/>
  </g>
  <g>
    <polyline style="fill: none; fill-opacity:0; stroke-width: 2; stroke: #000000" points="577.3,80 577.3,49 458.936,49 "/>
    <polygon style="fill: #000000" points="451.436,49 461.436,44 458.936,49 461.436,54 "/>
    <polygon style="fill: none; fill-opacity:0; stroke-width: 2; stroke: #000000" points="451.436,49 461.436,44 458.936,49 461.436,54 "/>
  </g>
  <text font-size="12.8" style="fill: #000000;text-anchor:end;font-family:sans-serif;font-style:normal;font-weight:700" x="140" y="60">
    <tspan x="140" y="60">hazard</tspan>
  </text>
  <text font-size="12.8" style="fill: #000000;text-anchor:start;font-family:sans-serif;font-style:normal;font-weight:700" x="580" y="60">
    <tspan x="580" y="60">chemical</tspan>
  </text>
  <g>
    <rect style="fill: #ffffff" x="400" y="240" width="149.2" height="18"/>
    <rect style="fill: none; fill-opacity:0; stroke-width: 2; stroke: #000000" x="400" y="240" width="149.2" height="18"/>
    <text font-size="11.2" style="fill: #000000;text-anchor:middle;font-family:sans-serif;font-style:normal;font-weight:700" x="474.6" y="254">Volume</text>
    <rect style="fill: #ffffff" x="400" y="258" width="149.2" height="20"/>
    <rect style="fill: none; fill-opacity:0; stroke-width: 2; stroke: #000000" x="400" y="258" width="149.2" height="20"/>
    <ellipse style="fill: none; fill-opacity:0; stroke-width: 0.2; stroke: #000000" cx="405" cy="268" rx="2" ry="2"/>
    <text font-size="12.8" style="fill: #000000;text-anchor:start;font-family:monospace;font-style:normal;font-weight:normal" x="409" y="274">amount</text>
    <text font-size="12.8" style="fill: #000000;text-anchor:start;font-family:monospace;font-style:normal;font-weight:normal" x="465.2" y="274">FixedPoint</text>
  </g>
  <g>
    <rect style="fill: #ffffff" x="320" y="180" width="149.2" height="18"/>
    <rect style="fill: none; fill-opacity:0; stroke-width: 2; stroke: #000000" x="320" y="180" width="149.2" height="18"/>
    <text font-size="11.2" style="fill: #000000;text-anchor:middle;font-family:sans-serif;font-style:normal;font-weight:700" x="394.6" y="194">Weight</text>
    <rect style="fill: #ffffff" x="320" y="198" width="149.2" height="20"/>
    <rect style="fill: none; fill-opacity:0; stroke-width: 2; stroke: #000000" x="320" y="198" width="149.2" height="20"/>
    <ellipse style="fill: none; fill-opacity:0; stroke-width: 0.2; stroke: #000000" cx="325" cy="208" rx="2" ry="2"/>
    <text font-size="12.8" style="fill: #000000;text-anchor:start;font-family:monospace;font-style:normal;font-weight:normal" x="329" y="214">amount</text>
    <text font-size="12.8" style="fill: #000000;text-anchor:start;font-family:monospace;font-style:normal;font-weight:normal" x="385.2" y="214">FixedPoint</text>
  </g>
  <g>
    <rect style="fill: #ffffff" x="20" y="160" width="141.5" height="18"/>
    <rect style="fill: none; fill-opacity:0; stroke-width: 2; stroke: #000000" x="20" y="160" width="141.5" height="18"/>
    <text font-size="11.2" style="fill: #000000;text-anchor:middle;font-family:sans-serif;font-style:normal;font-weight:700" x="90.75" y="174">Unit</text>
    <rect style="fill: #ffffff" x="20" y="178" width="141.5" height="20"/>
    <rect style="fill: none; fill-opacity:0; stroke-width: 2; stroke: #000000" x="20" y="178" width="141.5" height="20"/>
    <ellipse style="fill: none; fill-opacity:0; stroke-width: 0.2; stroke: #000000" cx="25" cy="188" rx="2" ry="2"/>
    <text font-size="12.8" style="fill: #000000;text-anchor:start;font-family:monospace;font-style:normal;font-weight:normal" x="29" y="194">               </text>
  </g>
  <g>
    <rect style="fill: #ffffff" x="80" y="380" width="141.5" height="18"/>
    <rect style="fill: none; fill-opacity:0; stroke-width: 2; stroke: #000000" x="80" y="380" width="141.5" height="18"/>
    <text font-size="11.2" style="fill: #000000;text-anchor:middle;font-family:sans-serif;font-style:normal;font-weight:700" x="150.75" y="394">Meter</text>
    <rect style="fill: #ffffff" x="80" y="398" width="141.5" height="20"/>
    <rect style="fill: none; fill-opacity:0; stroke-width: 2; stroke: #000000" x="80" y="398" width="141.5" height="20"/>
    <ellipse style="fill: none; fill-opacity:0; stroke-width: 0.2; stroke: #000000" cx="85" cy="408" rx="2" ry="2"/>
    <text font-size="12.8" style="fill: #000000;text-anchor:start;font-family:monospace;font-style:normal;font-weight:normal" x="89" y="414">               </text>
  </g>
  <g>
    <rect style="fill: #ffffff" x="80" y="260" width="141.5" height="18"/>
    <rect style="fill: none; fill-opacity:0; stroke-width: 2; stroke: #000000" x="80" y="260" width="141.5" height="18"/>
    <text font-size="11.2" style="fill: #000000;text-anchor:middle;font-family:sans-serif;font-style:normal;font-weight:700" x="150.75" y="274">Gram</text>
    <rect style="fill: #ffffff" x="80" y="278" width="141.5" height="20"/>
    <rect style="fill: none; fill-opacity:0; stroke-width: 2; stroke: #000000" x="80" y="278" width="141.5" height="20"/>
    <ellipse style="fill: none; fill-opacity:0; stroke-width: 0.2; stroke: #000000" cx="85" cy="288" rx="2" ry="2"/>
    <text font-size="12.8" style="fill: #000000;text-anchor:start;font-family:monospace;font-style:normal;font-weight:normal" x="89" y="294">               </text>
  </g>
  <g>
    <rect style="fill: #ffffff" x="80" y="320" width="141.5" height="18"/>
    <rect style="fill: none; fill-opacity:0; stroke-width: 2; stroke: #000000" x="80" y="320" width="141.5" height="18"/>
    <text font-size="11.2" style="fill: #000000;text-anchor:middle;font-family:sans-serif;font-style:normal;font-weight:700" x="150.75" y="334">Liter</text>
    <rect style="fill: #ffffff" x="80" y="338" width="141.5" height="20"/>
    <rect style="fill: none; fill-opacity:0; stroke-width: 2; stroke: #000000" x="80" y="338" width="141.5" height="20"/>
    <ellipse style="fill: none; fill-opacity:0; stroke-width: 0.2; stroke: #000000" cx="85" cy="348" rx="2" ry="2"/>
    <text font-size="12.8" style="fill: #000000;text-anchor:start;font-family:monospace;font-style:normal;font-weight:normal" x="89" y="354">               </text>
  </g>
  <g>
    <polyline style="fill: none; fill-opacity:0; stroke-width: 2; stroke: #000000" points="80,389 55.375,389 55.375,225 "/>
    <polygon style="fill: #000000" points="68.375,225 55.375,199 42.375,225 "/>
    <polygon style="fill: none; fill-opacity:0; stroke-width: 2; stroke: #000000" points="68.375,225 55.375,199 42.375,225 "/>
  </g>
  <polyline style="fill: none; fill-opacity:0; stroke-width: 2; stroke: #000000" points="55.375,198 55.375,269 80,269 "/>
  <polyline style="fill: none; fill-opacity:0; stroke-width: 2; stroke: #000000" points="55.375,198 55.375,329 80,329 "/>
  <g>
    <polyline style="fill: none; fill-opacity:0; stroke-width: 2; stroke: #000000" points="577.3,118 577.3,189 478.936,189 "/>
    <polygon style="fill: #000000" points="471.436,189 481.436,184 478.936,189 481.436,194 "/>
    <polygon style="fill: none; fill-opacity:0; stroke-width: 2; stroke: #000000" points="471.436,189 481.436,184 478.936,189 481.436,194 "/>
  </g>
  <g>
    <polyline style="fill: none; fill-opacity:0; stroke-width: 2; stroke: #000000" points="651.9,118 651.9,249 558.936,249 "/>
    <polygon style="fill: #000000" points="551.436,249 561.436,244 558.936,249 561.436,254 "/>
    <polygon style="fill: none; fill-opacity:0; stroke-width: 2; stroke: #000000" points="551.436,249 561.436,244 558.936,249 561.436,254 "/>
  </g>
  <g>
    <polyline style="fill: none; fill-opacity:0; stroke-width: 2; stroke: #000000" points="357.3,218 357.3,269 231.236,269 "/>
    <polygon style="fill: #000000" points="223.736,269 233.736,264 231.236,269 233.736,274 "/>
    <polygon style="fill: none; fill-opacity:0; stroke-width: 2; stroke: #000000" points="223.736,269 233.736,264 231.236,269 233.736,274 "/>
  </g>
  <g>
    <polyline style="fill: none; fill-opacity:0; stroke-width: 2; stroke: #000000" points="437.3,278 437.3,329 231.236,329 "/>
    <polygon style="fill: #000000" points="223.736,329 233.736,324 231.236,329 233.736,334 "/>
    <polygon style="fill: none; fill-opacity:0; stroke-width: 2; stroke: #000000" points="223.736,329 233.736,324 231.236,329 233.736,334 "/>
  </g>
  <text font-size="12.8" style="fill: #000000;text-anchor:start;font-family:sans-serif;font-style:normal;font-weight:700" x="240" y="260">
    <tspan x="240" y="260">measure</tspan>
  </text>
  <text font-size="12.8" style="fill: #000000;text-anchor:start;font-family:sans-serif;font-style:normal;font-weight:700" x="240" y="320">
    <tspan x="240" y="320">measure</tspan>
  </text>
  <text font-size="12.8" style="fill: #000000;text-anchor:start;font-family:sans-serif;font-style:normal;font-weight:700" x="480" y="180">
    <tspan x="480" y="180">weight</tspan>
  </text>
  <text font-size="12.8" style="fill: #000000;text-anchor:start;font-family:sans-serif;font-style:normal;font-weight:700" x="560" y="240">
    <tspan x="560" y="240">volume</tspan>
  </text>
  <g>
    <rect style="fill: #ffffff" x="480" y="320" width="149.2" height="18"/>
    <rect style="fill: none; fill-opacity:0; stroke-width: 2; stroke: #000000" x="480" y="320" width="149.2" height="18"/>
    <text font-size="11.2" style="fill: #000000;text-anchor:middle;font-family:sans-serif;font-style:normal;font-weight:700" x="554.6" y="334">Distance</text>
    <rect style="fill: #ffffff" x="480" y="338" width="149.2" height="20"/>
    <rect style="fill: none; fill-opacity:0; stroke-width: 2; stroke: #000000" x="480" y="338" width="149.2" height="20"/>
    <ellipse style="fill: none; fill-opacity:0; stroke-width: 0.2; stroke: #000000" cx="485" cy="348" rx="2" ry="2"/>
    <text font-size="12.8" style="fill: #000000;text-anchor:start;font-family:monospace;font-style:normal;font-weight:normal" x="489" y="354">amount</text>
    <text font-size="12.8" style="fill: #000000;text-anchor:start;font-family:monospace;font-style:normal;font-weight:normal" x="545.2" y="354">FixedPoint</text>
  </g>
  <g>
    <polyline style="fill: none; fill-opacity:0; stroke-width: 2; stroke: #000000" points="517.3,358 517.3,389 231.236,389 "/>
    <polygon style="fill: #000000" points="223.736,389 233.736,384 231.236,389 233.736,394 "/>
    <polygon style="fill: none; fill-opacity:0; stroke-width: 2; stroke: #000000" points="223.736,389 233.736,384 231.236,389 233.736,394 "/>
  </g>
  <text font-size="12.8" style="fill: #000000;text-anchor:start;font-family:sans-serif;font-style:normal;font-weight:700" x="240" y="380">
    <tspan x="240" y="380">measure</tspan>
  </text>
  <g>
    <rect style="fill: #ffffff" x="300" y="480" width="149.2" height="18"/>
    <rect style="fill: none; fill-opacity:0; stroke-width: 2; stroke: #000000" x="300" y="480" width="149.2" height="18"/>
    <text font-size="11.2" style="fill: #000000;text-anchor:middle;font-family:sans-serif;font-style:normal;font-weight:700" x="374.6" y="494">Depot Location</text>
    <rect style="fill: #ffffff" x="300" y="498" width="149.2" height="36"/>
    <rect style="fill: none; fill-opacity:0; stroke-width: 2; stroke: #000000" x="300" y="498" width="149.2" height="36"/>
    <ellipse style="fill: none; fill-opacity:0; stroke-width: 0.2; stroke: #000000" cx="305" cy="508" rx="2" ry="2"/>
    <text font-size="12.8" style="fill: #000000;text-anchor:start;font-family:monospace;font-style:normal;font-weight:normal" x="309" y="514">address</text>
    <text font-size="12.8" style="fill: #000000;text-anchor:start;font-family:monospace;font-style:normal;font-weight:normal" x="372.9" y="514">String</text>
    <ellipse style="fill: none; fill-opacity:0; stroke-width: 0.2; stroke: #000000" cx="305" cy="524" rx="2" ry="2"/>
    <text font-size="12.8" style="fill: #000000;text-anchor:start;font-family:monospace;font-style:normal;font-weight:normal" x="309" y="530">bounds</text>
    <text font-size="12.8" style="fill: #000000;text-anchor:start;font-family:monospace;font-style:normal;font-weight:normal" x="372.9" y="530">Rectangle</text>
  </g>
  <g>
    <polyline style="fill: none; fill-opacity:0; stroke-width: 2; stroke-dasharray: 4; stroke: #000000" points="374.6,480 374.6,420 591.9,420 591.9,367.736 "/>
    <polygon style="fill: #000000" points="591.9,360.236 596.9,370.236 591.9,367.736 586.9,370.236 "/>
    <polygon style="fill: none; fill-opacity:0; stroke-width: 2; stroke: #000000" points="591.9,360.236 596.9,370.236 591.9,367.736 586.9,370.236 "/>
  </g>
  <text font-size="12.8" style="fill: #000000;text-anchor:start;font-family:sans-serif;font-style:normal;font-weight:700" x="400" y="440">
    <tspan x="400" y="440">vulnerability</tspan>
    <tspan x="400" y="456">perimeter</tspan>
  </text>
</svg>
