<svg width="12cm" height="9cm" viewbox="10 8 350 300" xmlns="http://www.w3.org/2000/svg" xmlns:xlink="http://www.w3.org/1999/xlink"><a xlink:href="../topics/depot.management.system.md"><g><rect style="fill: #add8e6" x="10" y="10" width="200" height="68"/>
<rect style="fill: none; fill-opacity: 0; stroke-width: 2; stroke: #000000" x="10" y="10" width="200" height="68"/>
<text style="fill: #000000; text-anchor: middle; font-family: sans-serif; font-style: normal; font-weight: 700" font-size="17" x="110" y="37"><tspan x="110" y="37">depot management</tspan>
<tspan x="110" y="57">system</tspan>
</text>
</g>
</a>
<a xlink:href="../topics/drum.md"><g><rect style="fill: #bfbfbf" x="230" y="100" width="200" height="44"/>
<rect style="fill: none; fill-opacity: 0; stroke-width: 2; stroke: #000000" x="230" y="100" width="200" height="44"/>
<text style="fill: #000000; text-anchor: middle; font-family: sans-serif; font-style: normal; font-weight: 700" font-size="17" x="330" y="127"><tspan x="330" y="127">drum</tspan>
</text>
</g>
</a>
<a xlink:href="../topics/storage.building.md"><g><rect style="fill: #bfbfbf" x="230" y="200" width="200" height="44"/>
<rect style="fill: none; fill-opacity: 0; stroke-width: 2; stroke: #000000" x="230" y="200" width="200" height="44"/>
<text style="fill: #000000; text-anchor: middle; font-family: sans-serif; font-style: normal; font-weight: 700" font-size="17" x="330" y="227"><tspan x="330" y="227">storage building</tspan>
</text>
</g>
</a>
<g><polyline style="fill: none; fill-opacity: 0; stroke-width: 2; stroke: #000000" points="330,100 330,44 210,44"/>
<polygon points="330,100 340,85 320,85" style="fill: #000000"/>
<polygon points="330,85 340,70 320,70" style="fill: #000000"/>
<g><rect style="fill: #ffffff" x="285" y="49" width="90" height="26"/>
<text style="fill: #000000; text-anchor: middle; font-family: sans-serif; font-style: italic; font-weight: normal" font-size="18" x="0" y="0"><tspan x="330" y="66">allocates</tspan>
</text>
</g>
</g>
<g><polyline style="fill: none; fill-opacity: 0; stroke-width: 2; stroke: #000000" points="215,222 110,222 110,78"/>
<polygon points="230,222 215,232 215,212" style="fill: none; fill-opacity: 0; stroke-width: 2; stroke: #000000"/>
<g><rect style="fill: #ffffff" x="160" y="209" width="20" height="26"/>
<text style="fill: #000000; text-anchor: middle; font-family: sans-serif; font-style: italic; font-weight: normal" font-size="18" x="0" y="0"><tspan x="170" y="226">to</tspan>
</text>
</g>
</g>
</svg>
